<?xml version="1.0" encoding="UTF-8"?>
<svg id="_レイヤー_2" data-name="レイヤー 2" xmlns="http://www.w3.org/2000/svg" viewBox="0 0 1840.58 988.92">
  <defs>
    <style>
      .cls-1 {
        fill: #ffad36;
      }

      .cls-2 {
        fill: #fcfcfc;
      }

      .cls-3 {
        fill: #303030;
        font-family: HiraKakuProN-W6-90ms-RKSJ-H, 'Hiragino Kaku Gothic ProN';
        font-size: 35px;
      }
    </style>
  </defs>
  <g id="_レイヤー_1-2" data-name="レイヤー 1">
    <g>
      <rect class="cls-1" y="0" width="1840.58" height="988.92"/>
      <path class="cls-2" d="M1840.58,313.53v540.9l-156.01,134.48h-980.07l277.11-632.12-172.6-56.92L1282.08,0h121.56l134.75,540.44-172.6-56.93-172.55,393.64c-8.88,20.24,21.33,36,37.79,19.71l609.55-583.32Z"/>
      <path class="cls-2" d="M182.06,0C166.22,102.23,94.99,186.14,0,220.11V0h182.06Z"/>
      <path class="cls-2" d="M513.86,988.92H0v-47.03c65.92-33.54,140.54-52.45,219.57-52.45,110.67,0,212.68,37.07,294.29,99.48Z"/>
      <text class="cls-3" transform="translate(1012.36 571.36)"><tspan x="0" y="0">作業風景の</tspan><tspan x="17.5" y="50.46">写真など</tspan></text>
    </g>
  </g>
</svg>