<?xml version="1.0" encoding="UTF-8"?>
<svg id="_レイヤー_2" data-name="レイヤー 2" xmlns="http://www.w3.org/2000/svg" viewBox="0 0 209.83 56.47">
  <defs>
    <style>
      .cls-1 {
        stroke-width: 1.52px;
      }

      .cls-1, .cls-2 {
        fill: #fff;
        stroke: #303030;
        stroke-linecap: round;
        stroke-linejoin: round;
      }

      .cls-3 {
        fill: #303030;
      }

      .cls-2 {
        stroke-width: 1.14px;
      }
    </style>
  </defs>
  <g id="_レイヤー_1-2" data-name="レイヤー 1">
    <g>
      <g>
        <g>
          <rect class="cls-1" x=".76" y="7.24" width="47.63" height="48.47"/>
          <g>
            <polygon class="cls-1" points=".76 7.24 48.39 7.24 57.65 .76 10.02 .76 .76 7.24"/>
            <polygon class="cls-1" points="48.39 55.71 57.65 47.58 57.65 .76 48.39 7.24 48.39 55.71"/>
          </g>
        </g>
        <line class="cls-2" x1="19.61" y1="4" x2="37.2" y2="4"/>
        <path class="cls-3" d="M27.56,29.54l9.36-10.75h-4.27l-6.78,7.76-.34.29-6.1-8.05h-8.85l10.54,13.88-10,11.49h4.27l7.56-8.63.24-.19,6.79,8.83h8.61l-11.02-14.62ZM16.26,22.15l-.66-.92h2.51l15.39,20.34h-2.37l-14.87-19.42Z"/>
      </g>
      <g>
        <g>
          <rect class="cls-1" x="76.47" y="7.24" width="47.63" height="48.47"/>
          <g>
            <polygon class="cls-1" points="76.47 7.24 124.1 7.24 133.36 .76 85.73 .76 76.47 7.24"/>
            <polygon class="cls-1" points="124.1 55.71 133.36 47.58 133.36 .76 124.1 7.24 124.1 55.71"/>
          </g>
        </g>
        <line class="cls-2" x1="95.32" y1="4" x2="112.91" y2="4"/>
        <g>
          <path class="cls-3" d="M95.7,17c3.38-.13,7.16-.11,10.53.05,5.99.29,8.54,2.85,8.84,8.84.16,3.29.18,6.98.07,10.28-.22,6.51-2.94,9.22-9.44,9.44-3.12.1-6.63.1-9.75,0-6.14-.2-9.05-2.6-9.37-8.84-.17-3.34-.19-7.13-.07-10.48.23-6.28,2.91-9.04,9.19-9.28ZM96.71,19.55c-4.59.14-7.24.83-7.58,5.99-.23,3.52-.23,8.04,0,11.56.34,5.23,3.25,5.83,7.82,5.95,3.08.08,6.63.13,9.68-.07,5.23-.34,5.83-3.25,5.95-7.82.08-3.08.13-6.63-.07-9.68-.34-5.19-3.2-5.82-7.76-5.95-2.62-.07-5.43-.06-8.05.02Z"/>
          <path class="cls-3" d="M100.75,23.91c5.6-.07,9.22,5.99,6.54,10.92-2.88,5.3-10.7,5-13.17-.49-2.18-4.83,1.34-10.36,6.63-10.42ZM100.27,26.54c-6.05.62-5.33,10.03.99,9.52,6.19-.5,5.49-10.19-.99-9.52Z"/>
          <path class="cls-3" d="M108.06,21.96c2.71-.46,2.75,3.46.39,3.41-2.11-.04-2.22-3.1-.39-3.41Z"/>
        </g>
      </g>
      <g>
        <g>
          <rect class="cls-1" x="152.18" y="7.24" width="47.63" height="48.47"/>
          <g>
            <polygon class="cls-1" points="152.18 7.24 199.81 7.24 209.07 .76 161.44 .76 152.18 7.24"/>
            <polygon class="cls-1" points="199.81 55.71 209.07 47.58 209.07 .76 199.81 7.24 199.81 55.71"/>
          </g>
        </g>
        <line class="cls-2" x1="171.03" y1="4" x2="188.62" y2="4"/>
        <path class="cls-3" d="M161.66,35.46c-.2-2.1-.11-4.87-.12-7.04-.05-3.67.7-6.48,4.64-7.37,1.22-.29,2.38-.33,3.63-.33,1.43,0,2.96,0,4.57,0,2.3,0,4.67,0,6.97,0,3.13.04,6.43-.25,8.61,1.98,1.23,1.35,1.45,3.3,1.55,5.07.09,1.99.09,4.02.01,6.01-.09,1.77-.26,3.64-1.19,5.18-1,1.71-2.96,2.47-4.86,2.7-4.46.46-8.96.08-13.44.12-5.14,0-9.69-.03-10.37-6.3v-.02ZM173.99,26.88c-.51.03-.87.47-.92.95-.22,2.06.17,4.51,0,6.62.07.62.57,1,1.19.89,1.98-1.03,4.04-1.98,5.99-3.08.47-.26.98-.46,1.03-1.07.03-.36-.14-.69-.45-.88-1.96-.98-3.86-2.11-5.83-3.06-.28-.13-.7-.38-1.01-.37Z"/>
      </g>
    </g>
  </g>
</svg>