<?xml version="1.0" encoding="UTF-8"?>
<svg id="_レイヤー_2" data-name="レイヤー 2" xmlns="http://www.w3.org/2000/svg" viewBox="0 0 193.74 48.18">
  <defs>
    <style>
      .cls-1 {
        fill: #303030;
      }
    </style>
  </defs>
  <g id="_レイヤー_1-2" data-name="レイヤー 1">
    <path class="cls-1" d="M193.41,21.83l-13.48-9.4c-.48-.33-1.17.05-1.15.64l.12,4.15c-7.85.17-12.66,2.62-16.75,9.46-3.04,5.04-5.53,6.93-10.94,6.76h0c-.52-.02-.93-.41-.95-.91l-1.21-25.24c-.04-.73-.62-1.29-1.37-1.32l-8.64-.26c-1.84-.06-3.39-1.51-3.48-3.26l-.02-.46c-.03-.66-.56-1.16-1.23-1.18l-6.21-.19c-4.96-.15-7.66.44-11.11,2.11l-16.49,7.94c-3.01,1.44-4.19,2.08-8.34,1.95l-1.04-.03c-1.27-.04-2.34-1.04-2.4-2.25l-.07-1.47c-.04-.81-.69-1.44-1.52-1.46l-41.61-1.25c-.85-.03-1.57.6-1.49,1.4.05.43-.55.55-.77.17-2.24-3.97-7.03-6.7-16.33-6.98L1.59,0C.71-.03-.04.72,0,1.58l.42,8.85c.04.79.67,1.4,1.48,1.42l25.96.78c2.07.06,2.78,1.04,2.82,1.86l.03.67,12.44.37c.66.02,1.27.54,1.28,1.17,0,.52.47.95,1.01.97l42.67,1.28c.42.01.83.26.97.65.24.63-.22,1.2-.86,1.18l-33.96-1.02c-5.78-.17-10.25,4.13-9.99,9.61h0c0,.19-.14.33-.34.33s-.36-.16-.37-.35l-.02-.48c-.36-7.49-4.73-13.27-15.56-13.6l-25.45-.77.52,10.89,24.49.74c1.67.05,2.67.94,2.74,2.33l.04.82-28.44-.86c-.77-.02-1.43.63-1.39,1.38l.46,9.59c.04.78.66,1.38,1.47,1.41l42.61,1.28c.99.03,1.83-.8,1.79-1.77l-.27-5.65c-.1-2.07,1.59-3.69,3.77-3.63l24.01.72c.51.02.9.4.93.89h0c.08,1.68-.99,2.51-4.63,2.4l-20.64-.62c-.8-.02-1.49.65-1.45,1.44l.5,10.41c.03.72.61,1.28,1.35,1.3l19.3.58c17.15.52,21.48-7.17,20.99-17.34l-.12-2.57c-.04-.9.69-1.61,1.64-1.58,7.59.23,12.08-1.03,14.65-2.34l1.78-.91.9,18.76c.02.33.28.59.62.6l13.4.4c.41.01.76-.33.74-.74l-1.26-26.36c1.83-.81,4.12-1.46,8.68-1.32l1.09.03c1.31.04,2.43,1.08,2.49,2.33l1.39,28.98c.04.81.69,1.43,1.52,1.46l11.15.34c12.75.38,18.42-2.51,23.5-11.47,1.43-2.54,3.25-4.13,6.52-4.45l.12,3.85c.02.61.77.86,1.22.4l12.82-13.16c.37-.38.33-.96-.08-1.24Z"/>
  </g>
</svg>